<svg width="141" height="141" viewBox="0 0 141 141" fill="none" xmlns="http://www.w3.org/2000/svg">
<path d="M70.5 141C31.6265 141 0 109.375 0 70.4976C0 31.6206 31.6265 0 70.5 0C109.373 0 141 31.6254 141 70.4976C141 109.37 109.373 140.995 70.5 140.995M70.5 7.94031C36.0019 7.94031 7.93574 36.0055 7.93574 70.5024C7.93574 104.999 36.0019 133.065 70.5 133.065C104.998 133.065 133.064 104.999 133.064 70.5024C133.064 36.0055 104.998 7.94031 70.5 7.94031Z" fill="black"/>
<path d="M71 54.2539C65.2134 40.5083 52.3215 30.511 37 29V35.6291C54.2777 37.6617 67.7348 52.5235 67.7348 70.5C67.7348 76.1542 66.4016 81.5014 64.0396 86.2392C58.9534 74.9795 49.0514 66.3909 37 63.1641V70.0321C47.7521 73.5075 56.2485 82.1253 59.6248 93.0096C54.0556 99.7216 46.0519 104.308 37 105.371V112C46.274 111.084 54.6593 107.062 61.1125 100.979C63.2088 99.0051 65.1023 96.8165 66.7542 94.4427C68.4255 92.0445 69.8504 89.4563 71 86.7266C72.1496 89.4563 73.5697 92.0445 75.2458 94.4427C76.8977 96.8116 78.7912 99.0051 80.8875 100.979C87.3455 107.062 95.726 111.084 105 112V105.371C95.9481 104.303 87.9445 99.7167 82.3752 93.0096C85.7515 82.1253 94.2431 73.5075 105 70.0321V63.1641C92.9534 66.3909 83.0466 74.9795 77.9604 86.2392C75.5984 81.5014 74.2652 76.1542 74.2652 70.5C74.2652 52.5235 87.7223 37.6666 105 35.6291V29C89.6785 30.511 76.7818 40.5083 71 54.2539Z" fill="black"/>
</svg>
