<svg width="248" height="60" viewBox="0 0 248 60" fill="none" xmlns="http://www.w3.org/2000/svg">
<g clip-path="url(#clip0_2166_144)">
<path d="M29.9625 60C13.4413 60 0 46.5424 0 29.999C0 13.4556 13.4413 0 29.9625 0C46.4837 0 59.925 13.4576 59.925 29.999C59.925 46.5403 46.4837 59.9979 29.9625 59.9979M29.9625 3.37886C15.3008 3.37886 3.37269 15.3215 3.37269 30.001C3.37269 44.6806 15.3008 56.6232 29.9625 56.6232C44.6242 56.6232 56.5523 44.6806 56.5523 30.001C56.5523 15.3215 44.6242 3.37886 29.9625 3.37886Z" fill="#BA8A54"/>
<path d="M84.7011 34.175C84.7011 33.3535 84.8599 32.5691 85.1774 31.8219C85.4948 31.0748 85.9319 30.4205 86.4926 29.8611C87.0513 29.3017 87.7048 28.8518 88.4511 28.5174C89.1974 28.1809 89.9993 28.0138 90.8569 28.0138H105.294V31.9912H90.2982C88.7315 31.9912 87.4079 32.532 86.3256 33.6156C85.2433 34.6992 84.7032 36.0244 84.7032 37.593V49.8618H76.925V10.1411H105.294V14.1185H84.7032V34.175H84.7011Z" fill="#BA8A54"/>
<path d="M135.172 28.2919L149.72 49.8613H139.817L129.802 35.0145L117.995 49.8613H112.567L127.338 31.3178L113.014 10.1406H122.918L132.71 24.6509L144.292 10.1406H149.72L135.172 28.2919Z" fill="#BA8A54"/>
<path d="M179.598 28.0113H187.376V49.8593H169.472C167.606 49.8593 165.844 49.5043 164.184 48.7943C162.524 48.0863 161.079 47.1141 159.849 45.8819C158.618 44.6497 157.647 43.2028 156.94 41.5391C156.231 39.8776 155.876 38.0942 155.876 36.1891V23.8089C155.876 21.9038 156.231 20.1204 156.94 18.4589C157.649 16.7973 158.618 15.3504 159.849 14.1161C161.079 12.8839 162.524 11.9138 164.184 11.2037C165.844 10.4937 167.606 10.1387 169.472 10.1387H187.376V14.1161H173.275C171.933 14.1161 170.682 14.3679 169.525 14.8715C168.369 15.3752 167.353 16.0666 166.476 16.9439C165.6 17.8211 164.91 18.849 164.407 20.0255C163.904 21.202 163.652 22.4631 163.652 23.8068V36.187C163.652 37.5307 163.904 38.7919 164.407 39.9684C164.91 41.1449 165.6 42.1728 166.476 43.05C167.353 43.9272 168.369 44.6187 169.525 45.1223C170.682 45.626 171.931 45.8778 173.275 45.8778H179.598V28.0072V28.0113Z" fill="#BA8A54"/>
<path d="M209.722 29.5513H211.474V34.474H207.44C207.019 34.474 206.623 34.3935 206.248 34.2346C205.875 34.0757 205.549 33.8569 205.271 33.5782C204.993 33.3017 204.774 32.9755 204.616 32.5999C204.457 32.2263 204.376 31.8238 204.376 31.3945V28.6059C204.376 28.1766 204.457 27.7741 204.616 27.4005C204.774 27.0269 204.993 26.7008 205.271 26.4222C205.549 26.1456 205.873 25.9268 206.248 25.7658C206.621 25.6069 207.019 25.5264 207.44 25.5264H211.474V26.4222H208.297C207.994 26.4222 207.714 26.48 207.452 26.5935C207.192 26.707 206.962 26.8618 206.766 27.06C206.568 27.2581 206.413 27.4893 206.3 27.7535C206.186 28.0177 206.129 28.3025 206.129 28.6059V31.3945C206.129 31.6979 206.184 31.9807 206.3 32.2469C206.415 32.5132 206.568 32.7444 206.766 32.9405C206.964 33.1386 207.192 33.2934 207.452 33.4069C207.712 33.5205 207.994 33.5782 208.297 33.5782H209.722V29.5533V29.5513Z" fill="#BA8A54"/>
<path d="M222.982 26.484C223.25 26.7544 223.464 27.0723 223.625 27.4438C223.784 27.8133 223.864 28.2096 223.864 28.6306V31.3944C223.864 31.799 223.788 32.1849 223.637 32.5565C223.487 32.928 223.268 33.2582 222.982 33.5534C222.772 33.7639 222.514 33.9394 222.207 34.0777C221.9 34.216 221.568 34.3192 221.211 34.3873C220.854 34.4554 220.483 34.4884 220.102 34.4884C219.721 34.4884 219.349 34.4554 218.993 34.3873C218.636 34.3192 218.304 34.216 217.997 34.0777C217.69 33.9394 217.432 33.7639 217.222 33.5534C216.952 33.2768 216.74 32.9548 216.579 32.5874C216.42 32.2221 216.34 31.8237 216.34 31.3944V28.6306C216.34 28.2261 216.416 27.8401 216.566 27.4686C216.717 27.0991 216.935 26.7709 217.222 26.484C217.432 26.2735 217.69 26.1001 217.997 25.9598C218.304 25.8215 218.636 25.7162 218.993 25.644C219.349 25.5717 219.721 25.5366 220.102 25.5366C220.483 25.5366 220.854 25.5717 221.211 25.644C221.568 25.7162 221.9 25.8215 222.207 25.9598C222.514 26.098 222.772 26.2735 222.982 26.484ZM222.151 31.3923V28.6286C222.151 28.1662 222.05 27.7761 221.848 27.4603C221.646 27.1445 221.394 26.9113 221.091 26.7606C220.788 26.6099 220.459 26.5336 220.102 26.5336C219.745 26.5336 219.415 26.6099 219.112 26.7606C218.809 26.9113 218.558 27.1466 218.356 27.4603C218.154 27.7761 218.053 28.1662 218.053 28.6286V31.3923C218.053 31.8629 218.154 32.2551 218.356 32.5668C218.558 32.8785 218.809 33.1096 219.112 33.2603C219.415 33.411 219.745 33.4894 220.102 33.4936C220.459 33.4977 220.788 33.4192 221.091 33.2603C221.394 33.1014 221.646 32.8661 221.848 32.5606C222.05 32.2531 222.151 31.865 222.151 31.3923Z" fill="#BA8A54"/>
<path d="M230.408 33.5758H235.5V34.4716H228.655V25.5239H230.408V33.5758Z" fill="#BA8A54"/>
<path d="M247.525 31.3798C247.525 31.8091 247.442 32.2116 247.279 32.5852C247.116 32.9588 246.894 33.2849 246.617 33.5636C246.339 33.8402 246.013 34.061 245.64 34.22C245.267 34.3789 244.869 34.4594 244.449 34.4594H240.414V25.5117H244.449C244.869 25.5117 245.265 25.5922 245.64 25.7511C246.013 25.9101 246.339 26.1289 246.617 26.4075C246.896 26.6841 247.116 27.0102 247.279 27.3859C247.442 27.7595 247.525 28.162 247.525 28.5913V31.3798ZM242.169 29.9928V33.5636H243.593C243.896 33.5636 244.179 33.5058 244.445 33.3923C244.708 33.2788 244.939 33.124 245.137 32.9258C245.335 32.7277 245.49 32.4965 245.603 32.2323C245.717 31.9681 245.774 31.6832 245.774 31.3798V28.5913C245.774 28.2879 245.719 28.0051 245.603 27.7388C245.49 27.4746 245.333 27.2435 245.137 27.0453C244.939 26.8472 244.708 26.6924 244.445 26.5788C244.181 26.4653 243.896 26.4075 243.593 26.4075H242.169V29.9928Z" fill="#BA8A54"/>
<path d="M30.0332 23.1196C27.5576 17.299 22.0424 13.0656 15.4877 12.4258V15.2329C22.8793 16.0936 28.6363 22.3869 28.6363 29.9991C28.6363 32.3934 28.0659 34.6577 27.0555 36.664C24.8795 31.896 20.6434 28.2591 15.4877 26.8927V29.801C20.0875 31.2727 23.7223 34.9219 25.1668 39.5309C22.7842 42.3732 19.3602 44.3154 15.4877 44.7654V47.5725C19.4552 47.1845 23.0425 45.4816 25.8032 42.9057C26.7 42.0697 27.5101 41.143 28.2168 40.1378C28.9318 39.1223 29.5413 38.0263 30.0332 36.8704C30.525 38.0263 31.1325 39.1223 31.8495 40.1378C32.5562 41.1409 33.3663 42.0697 34.2631 42.9057C37.0259 45.4816 40.6111 47.1845 44.5786 47.5725V44.7654C40.7061 44.3134 37.2821 42.3711 34.8995 39.5309C36.344 34.9219 39.9767 31.2727 44.5786 29.801V26.8927C39.425 28.2591 35.1868 31.896 33.0108 36.664C32.0004 34.6577 31.43 32.3934 31.43 29.9991C31.43 22.3869 37.187 16.0957 44.5786 15.2329V12.4258C38.0239 13.0656 32.5066 17.299 30.0332 23.1196Z" fill="#BA8A54"/>
<path d="M30.0332 23.1196C27.5576 17.299 22.0424 13.0656 15.4877 12.4258V15.2329C22.8793 16.0936 28.6363 22.3869 28.6363 29.9991C28.6363 32.3934 28.0659 34.6577 27.0555 36.664C24.8795 31.896 20.6434 28.2591 15.4877 26.8927V29.801C20.0875 31.2727 23.7223 34.9219 25.1668 39.5309C22.7842 42.3732 19.3602 44.3154 15.4877 44.7654V47.5725C19.4552 47.1845 23.0425 45.4816 25.8032 42.9057C26.7 42.0697 27.5101 41.143 28.2168 40.1378C28.9318 39.1223 29.5413 38.0263 30.0332 36.8704C30.525 38.0263 31.1325 39.1223 31.8495 40.1378C32.5562 41.1409 33.3663 42.0697 34.2631 42.9057C37.0259 45.4816 40.6111 47.1845 44.5786 47.5725V44.7654C40.7061 44.3134 37.2821 42.3711 34.8995 39.5309C36.344 34.9219 39.9767 31.2727 44.5786 29.801V26.8927C39.425 28.2591 35.1868 31.896 33.0108 36.664C32.0004 34.6577 31.43 32.3934 31.43 29.9991C31.43 22.3869 37.187 16.0957 44.5786 15.2329V12.4258C38.0239 13.0656 32.5066 17.299 30.0332 23.1196Z" fill="#BA8A54"/>
</g>
<defs>
<clipPath id="clip0_2166_144">
<rect width="247.525" height="60" fill="white"/>
</clipPath>
</defs>
</svg>
