<svg width="21" height="17" viewBox="0 0 21 17" fill="none" xmlns="http://www.w3.org/2000/svg">
<path d="M2.14998 2.81259L8.56299 7.18457L8.56513 7.18617C9.27722 7.65758 9.63347 7.89343 10.0237 7.98454C10.3686 8.06508 10.7311 8.06508 11.076 7.98454C11.4665 7.89335 11.8238 7.65682 12.5372 7.18457C12.5372 7.18457 16.6506 4.33486 18.95 2.81259M1.09998 12.1022V4.89816C1.09998 3.83641 1.09998 3.30514 1.32886 2.89961C1.5302 2.54289 1.85122 2.25308 2.24636 2.07132C2.69558 1.86469 3.28407 1.86469 4.46018 1.86469H16.6402C17.8163 1.86469 18.4035 1.86469 18.8527 2.07132C19.2479 2.25308 19.57 2.54289 19.7713 2.89961C20 3.30474 20 3.83537 20 4.89505V12.1054C20 13.1651 20 13.695 19.7713 14.1001C19.57 14.4568 19.2479 14.7471 18.8527 14.9289C18.404 15.1353 17.817 15.1353 16.6432 15.1353H4.45673C3.28292 15.1353 2.69514 15.1353 2.24636 14.9289C1.85122 14.7471 1.5302 14.4568 1.32886 14.1001C1.09998 13.6946 1.09998 13.164 1.09998 12.1022Z" stroke="white" stroke-width="2" stroke-linecap="round" stroke-linejoin="round"/>
</svg>
