<svg width="21" height="21" viewBox="0 0 21 21" fill="none" xmlns="http://www.w3.org/2000/svg">
<path d="M7.82758 3.16061C7.50867 2.44086 6.73648 1.96889 5.87778 1.96889H2.98947C1.89072 1.96889 1 2.77281 1 3.76472C1 12.196 8.57132 19.0311 17.9107 19.0311C19.0095 19.0311 19.9 18.2269 19.9 17.235L19.9005 14.6271C19.9005 13.8519 19.3778 13.1549 18.5805 12.867L15.8123 11.8678C15.0961 11.6092 14.2807 11.7255 13.6881 12.1713L12.9737 12.7093C12.1393 13.337 10.9116 13.287 10.1436 12.5937L8.13183 10.7759C7.36383 10.0826 7.30707 8.97515 8.00239 8.2219L8.59814 7.57696C9.09194 7.04202 9.22201 6.30569 8.93555 5.65916L7.82758 3.16061Z" stroke="white" stroke-width="2" stroke-linecap="round" stroke-linejoin="round"/>
</svg>
