<svg width="22" height="20" viewBox="0 0 22 20" fill="none" xmlns="http://www.w3.org/2000/svg">
<path d="M8.15803 3.04572C7.83912 2.32597 7.06693 1.854 6.20823 1.854H3.31992C2.22116 1.854 1.33044 2.65792 1.33044 3.64983C1.33044 12.0811 8.90176 18.9162 18.2412 18.9162C19.3399 18.9162 20.2304 18.112 20.2304 17.1201L20.2309 14.5122C20.2309 13.737 19.7083 13.04 18.911 12.7521L16.1427 11.7529C15.4265 11.4943 14.6111 11.6107 14.0186 12.0564L13.3041 12.5944C12.4698 13.2221 11.2421 13.1722 10.474 12.4788L8.46228 10.661C7.69427 9.96768 7.63752 8.86026 8.33284 8.10701L8.92859 7.46207C9.42239 6.92713 9.55246 6.1908 9.26599 5.54427L8.15803 3.04572Z" stroke="white" stroke-width="2" stroke-linecap="round" stroke-linejoin="round"/>
</svg>
